<svg width="100" height="100" viewBox="0 0 100 100" fill="none" xmlns="http://www.w3.org/2000/svg">
<circle cx="50" cy="50" r="50" fill="#2554C3"/>
<path d="M40 36.18C40 34.2655 40 33.3082 40.3994 32.7806C40.7473 32.3209 41.279 32.0364 41.8547 32.002C42.5154 31.9626 43.3123 32.4936 44.9059 33.5556L65.6449 47.3756C66.9617 48.2531 67.6201 48.6918 67.8496 49.2448C68.0501 49.7283 68.0501 50.2717 67.8496 50.7552C67.6201 51.3082 66.9617 51.7469 65.6449 52.6244L44.9059 66.4444C43.3123 67.5064 42.5154 68.0374 41.8547 67.9979C41.279 67.9636 40.7473 67.6791 40.3994 67.2194C40 66.6917 40 65.7345 40 63.82V36.18Z" stroke="white" stroke-width="3" stroke-linecap="round" stroke-linejoin="round"/>
</svg>
