<svg width="11" height="19" viewBox="0 0 11 19" fill="none" xmlns="http://www.w3.org/2000/svg">
<path id="Vector" d="M0.295607 17.3981C0.20118 17.4887 0.12736 17.5953 0.0783616 17.7118C0.0293618 17.8284 0.00614266 17.9525 0.0100298 18.0772C0.013918 18.2018 0.0448361 18.3246 0.101018 18.4384C0.157201 18.5522 0.237548 18.6549 0.337472 18.7406C0.437396 18.8262 0.554941 18.8932 0.683394 18.9376C0.811848 18.9821 0.948694 19.0031 1.08612 18.9996C1.22355 18.9961 1.35886 18.968 1.48434 18.9171C1.60982 18.8661 1.723 18.7932 1.81743 18.7026L10.7139 10.1576C10.8976 9.98132 11 9.74793 11 9.50534C11 9.26274 10.8976 9.02935 10.7139 8.85307L1.81743 0.307133C1.72363 0.214505 1.61047 0.139706 1.48453 0.0870841C1.35859 0.0344603 1.22238 0.00506426 1.08381 0.000597224C0.945239 -0.0038679 0.807072 0.0166876 0.677333 0.0610696C0.547594 0.105452 0.428869 0.172775 0.328056 0.259132C0.227242 0.345488 0.14635 0.449154 0.0900754 0.56411C0.0338009 0.679066 0.00326811 0.803019 0.000248769 0.92877C-0.00276962 1.05452 0.0217846 1.17956 0.0724886 1.29663C0.123193 1.4137 0.199034 1.52046 0.295607 1.61072L8.51386 9.50534L0.295607 17.3981Z" fill="black"/>
</svg>
