<svg width="24" height="26" viewBox="0 0 24 26" fill="none" xmlns="http://www.w3.org/2000/svg">
    <g style="transform:translateX(-47px)">
        <path d="M68.3333 2C69.0406 2 69.7189 2.28095 70.219 2.78105C70.719 3.28115 71 3.95942 71 4.66667V23.3333C71 24.0406 70.719 24.7189 70.219 25.219C69.7189 25.719 69.0406 26 68.3333 26H49.6667C48.9594 26 48.2811 25.719 47.781 25.219C47.281 24.7189 47 24.0406 47 23.3333V4.66667C47 3.95942 47.281 3.28115 47.781 2.78105C48.2811 2.28095 48.9594 2 49.6667 2H68.3333ZM67.6667 22.6667V15.6C67.6667 14.4472 67.2087 13.3416 66.3936 12.5264C65.5784 11.7113 64.4728 11.2533 63.32 11.2533C62.1867 11.2533 60.8667 11.9467 60.2267 12.9867V11.5067H56.5067V22.6667H60.2267V16.0933C60.2267 15.0667 61.0533 14.2267 62.08 14.2267C62.5751 14.2267 63.0499 14.4233 63.3999 14.7734C63.75 15.1235 63.9467 15.5983 63.9467 16.0933V22.6667H67.6667ZM52.1733 9.41333C52.7674 9.41333 53.3372 9.17733 53.7573 8.75725C54.1773 8.33717 54.4133 7.76742 54.4133 7.17333C54.4133 5.93333 53.4133 4.92 52.1733 4.92C51.5757 4.92 51.0026 5.1574 50.58 5.57999C50.1574 6.00257 49.92 6.57571 49.92 7.17333C49.92 8.41333 50.9333 9.41333 52.1733 9.41333ZM54.0267 22.6667V11.5067H50.3333V22.6667H54.0267Z" fill="white"/>
    </g>
</svg>
