<svg xmlns="http://www.w3.org/2000/svg" width="24" height="25" viewBox="0 0 24 25" fill="none">
  <path d="M21.9515 22.0434L14.027 10.5309L13.1311 9.22881L7.46262 0.993511L6.99277 0.311035H0.0272522L1.72608 2.77973L9.26317 13.7308L10.1591 15.0315L16.215 23.8304L16.6848 24.5122H23.6503L21.9515 22.0436V22.0434ZM17.5128 22.9363L11.2212 13.7951L10.3253 12.4939L3.02473 1.88662H6.16516L12.0693 10.465L12.9652 11.7662L20.6534 22.9363H17.513H17.5128Z" fill="white"/>
  <path d="M10.3251 12.4937L11.221 13.7949L10.1589 15.031L2.0096 24.5116H0L9.263 13.7304L10.3251 12.4937Z" fill="white"/>
  <path d="M22.8115 0.311035L14.0269 10.5309L12.9648 11.7662L12.0689 10.465L13.131 9.22881L19.0816 2.30272L20.8019 0.311035H22.8115Z" fill="white"/>
</svg>