<svg width="128" height="53" viewBox="0 0 128 53" fill="none" xmlns="http://www.w3.org/2000/svg">
<rect width="127.276" height="52.8061" fill="#481140"/>
<path d="M11.5127 14.2136H15.0677L26.7654 29.2842V14.2136H30.5378V36.0089H27.3248L15.2851 20.5042V36.0089H11.5127V14.2136Z" fill="white"/>
<path d="M34.3545 14.2136H50.5407V17.6381H38.1908V23.3064H49.1372V26.7628H38.1908V32.5843H50.6973V36.0089H34.3545V14.2136Z" fill="white"/>
<path d="M77.3066 26.7628V14.2136H81.143V26.6065C81.143 30.6534 83.2306 32.8013 86.6641 32.8013C90.0625 32.8013 92.1533 30.7779 92.1533 26.7597V14.2136H95.9896V26.5745C95.9896 33.0822 92.3099 36.3503 86.6002 36.3503C80.9256 36.3535 77.3066 33.0822 77.3066 26.7628Z" fill="#A1489B"/>
<path d="M97.9316 32.8332L100.24 30.0917C102.327 31.8981 104.45 32.9258 107.132 32.9258C109.505 32.9258 111.001 31.8055 111.001 30.1842V30.1204C111.001 28.5629 110.128 27.7235 106.074 26.7884C101.426 25.6681 98.8076 24.2989 98.8076 20.2807V20.2169C98.8076 16.4796 101.928 13.8976 106.26 13.8976C109.441 13.8976 111.966 14.8614 114.182 16.636L112.123 19.5307C110.157 18.0658 108.194 17.287 106.196 17.287C103.948 17.287 102.641 18.4392 102.641 19.8722V19.9329C102.641 21.6148 103.638 22.3616 107.849 23.3574C112.465 24.4777 114.834 26.1277 114.834 29.7406V29.8044C114.834 33.8832 111.621 36.312 107.037 36.312C103.699 36.3216 100.55 35.1695 97.9316 32.8332Z" fill="#A1489B"/>
<path d="M63.0358 25.5532L47.3164 47.208H49.826L64.3114 27.2511L63.0614 25.5532H63.0358Z" fill="white"/>
<path d="M66.5594 24.1649L59.2639 14.188H54.7402L62.0389 24.1649H62.0357L63.0619 25.5532L64.3119 27.2511L70.8625 36.1333H75.3861L66.5594 24.1649Z" fill="#A1489B"/>
<path d="M79.682 2.70789H82.1373L66.5585 24.1649H64.1064L79.682 2.70789Z" fill="white"/>
</svg>
