<svg width="56" height="48" viewBox="0 0 56 48" fill="none" xmlns="http://www.w3.org/2000/svg">
<g id="Frame 25">
<path id="Vector" d="M37.6984 18.1395L24.522 9.2093C24.2738 9.04095 23.9852 8.94431 23.6872 8.92969C23.3892 8.91508 23.0928 8.98304 22.8298 9.12632C22.5669 9.2696 22.3471 9.48281 22.194 9.74319C22.041 10.0036 21.9603 10.3013 21.9608 10.6047V28.4651C21.9603 28.7684 22.041 29.0662 22.194 29.3266C22.3471 29.587 22.5669 29.8002 22.8298 29.9435C23.0928 30.0867 23.3892 30.1547 23.6872 30.1401C23.9852 30.1255 24.2738 30.0288 24.522 29.8605L37.6984 20.9302C37.9249 20.7775 38.1107 20.5701 38.2393 20.3267C38.3678 20.0832 38.435 19.8112 38.435 19.5349C38.435 19.2586 38.3678 18.9866 38.2393 18.7431C38.1107 18.4996 37.9249 18.2923 37.6984 18.1395ZM25.2549 25.3367V13.733L33.8141 19.5349L25.2549 25.3367ZM52.1569 0H3.84314C2.82387 0 1.84636 0.411627 1.12563 1.14433C0.404901 1.87703 0 2.87078 0 3.90698V35.1628C0 36.199 0.404901 37.1927 1.12563 37.9254C1.84636 38.6581 2.82387 39.0698 3.84314 39.0698H52.1569C53.1761 39.0698 54.1536 38.6581 54.8744 37.9254C55.5951 37.1927 56 36.199 56 35.1628V3.90698C56 2.87078 55.5951 1.87703 54.8744 1.14433C54.1536 0.411627 53.1761 0 52.1569 0ZM52.7059 35.1628C52.7059 35.3108 52.648 35.4528 52.5451 35.5575C52.4421 35.6621 52.3025 35.7209 52.1569 35.7209H3.84314C3.69753 35.7209 3.55788 35.6621 3.45492 35.5575C3.35196 35.4528 3.29412 35.3108 3.29412 35.1628V3.90698C3.29412 3.75895 3.35196 3.61698 3.45492 3.51231C3.55788 3.40764 3.69753 3.34884 3.84314 3.34884H52.1569C52.3025 3.34884 52.4421 3.40764 52.5451 3.51231C52.648 3.61698 52.7059 3.75895 52.7059 3.90698V35.1628ZM56 46.3256C56 46.7697 55.8265 47.1956 55.5176 47.5096C55.2087 47.8236 54.7898 48 54.3529 48H1.64706C1.21023 48 0.791296 47.8236 0.482412 47.5096C0.173529 47.1956 0 46.7697 0 46.3256C0 45.8815 0.173529 45.4556 0.482412 45.1416C0.791296 44.8276 1.21023 44.6512 1.64706 44.6512H54.3529C54.7898 44.6512 55.2087 44.8276 55.5176 45.1416C55.8265 45.4556 56 45.8815 56 46.3256Z" fill="#481140"/>
</g>
</svg>
