<?xml version="1.0" encoding="UTF-8" standalone="no"?>
<!-- Created with Inkscape (http://www.inkscape.org/) -->

<svg
   version="1.1"
   id="svg2"
   width="1260"
   height="239"
   viewBox="182 448 1260 239"
   sodipodi:docname="SozoseiFoundation_Registered_Logo_black.html"
   xmlns:inkscape="http://www.inkscape.org/namespaces/inkscape"
   xmlns:sodipodi="http://sodipodi.sourceforge.net/DTD/sodipodi-0.dtd"
   xmlns="http://www.w3.org/2000/svg"
   xmlns:svg="http://www.w3.org/2000/svg">
  <defs
     id="defs6">
    <clipPath
       clipPathUnits="userSpaceOnUse"
       id="clipPath16">
      <path
         d="M 0,792 H 1224 V 0 H 0 Z"
         id="path14" />
    </clipPath>
  </defs>
  <sodipodi:namedview
     id="namedview4"
     pagecolor="#ffffff"
     bordercolor="#000000"
     borderopacity="0.25"
     inkscape:showpageshadow="2"
     inkscape:pageopacity="0.0"
     inkscape:pagecheckerboard="0"
     inkscape:deskcolor="#d1d1d1" />
  <g
     id="g8"
     inkscape:groupmode="layer"
     inkscape:label="SozoseiFoundation_Registered_Logo_black"
     transform="matrix(1.3333333,0,0,-1.3333333,0,1056)">
    <g
       id="g10">
      <g
         id="g12"
         clip-path="url(#clipPath16)">
        <g
           id="g18"
           transform="translate(853.7059,343.5406)">
          <path
             d="m 0,0 c -4.644,-0.784 -15.866,-4.712 -22.9,-9.092 -8.081,-5.032 -10.598,-9.93 -9.392,-16.102 1.047,-5.342 3.298,-10.582 7.117,-16.738 4.185,-6.733 10.491,-10.626 18.394,-7.075 7.905,3.561 19.2,11.88 23.31,16.938 4.804,5.92 4.804,11.35 3.023,16.801 -1.408,4.314 -3.553,7.446 -6.518,10.712 C 10.524,-1.79 6.788,0.207 2.44,0.207 1.646,0.207 0.831,0.14 0,0"
             style="fill:#231f20;fill-opacity:1;fill-rule:nonzero;stroke:none"
             id="path20" />
        </g>
        <g
           id="g22"
           transform="translate(840.6347,289.8578)">
          <path
             d="M 0,0 C 0.945,1.402 2.207,1.879 4.311,1.318 6.147,0.838 8.707,-0.605 9.346,-1.23 10.282,-2.161 10.593,-3.099 10.433,-4.557 10.304,-5.751 10,-6.738 9.437,-7.846 8.609,-9.475 7.453,-10.47 5.929,-10.494 4.412,-10.531 1.224,-10.169 -0.59,-9.367 -2.398,-8.559 -2.622,-6.633 -2.006,-4.548 -1.448,-2.648 -0.824,-1.22 0,0"
             style="fill:#231f20;fill-opacity:1;fill-rule:nonzero;stroke:none"
             id="path24" />
        </g>
        <g
           id="g26"
           transform="translate(912.1753,281.0693)">
          <path
             d="m 0,0 c -10.585,0 -14.346,8.823 -14.346,16.363 0,7.547 3.761,16.361 14.346,16.361 10.591,0 14.347,-8.814 14.347,-16.361 C 14.347,8.823 10.591,0 0,0 m 0,34.429 c -11.687,0 -17.009,-9.366 -17.009,-18.066 0,-8.689 5.322,-18.071 17.009,-18.071 11.691,0 17.014,9.382 17.014,18.071 0,8.7 -5.323,18.066 -17.014,18.066"
             style="fill:#231f20;fill-opacity:1;fill-rule:nonzero;stroke:none"
             id="path28" />
        </g>
        <g
           id="g30"
           transform="translate(944.6758,305.7682)">
          <path
             d="m 0,0 h -3.793 v 6.989 c 0,1.598 -0.814,1.598 -1.148,1.598 -0.349,0 -1.155,0 -1.155,-1.598 V 0 h -3.8 c -0.569,0 -0.857,-0.233 -0.857,-0.697 0,-0.462 0.288,-0.698 0.857,-0.698 h 3.8 v -23.48 c 0,-1.531 0.806,-1.531 1.155,-1.531 0.334,0 1.148,0 1.148,1.531 v 23.48 H 0 c 0.567,0 0.86,0.236 0.86,0.698 C 0.86,-0.233 0.567,0 0,0"
             style="fill:#231f20;fill-opacity:1;fill-rule:nonzero;stroke:none"
             id="path32" />
        </g>
        <g
           id="g34"
           transform="translate(963.9434,291.1825)">
          <path
             d="m 0,0 c -1.468,0.532 -5.74,2.068 -7.387,2.662 -3.499,1.265 -4.929,3.15 -4.929,5.786 0,3.98 5.034,6.449 9.691,6.449 2.913,0 6.042,-0.58 8.754,-2.135 1.288,-0.723 0.245,-2.204 -0.925,-1.583 -2.057,1.078 -3.565,2.324 -7.664,2.324 -3.574,0 -7.286,-1.649 -7.286,-4.79 0,-1.828 1.439,-3.196 3.645,-3.954 0.694,-0.242 5.639,-1.993 6.484,-2.29 4.628,-1.639 7.313,-3.45 7.313,-7.107 0,-4.297 -4.297,-7.183 -10.696,-7.183 -5.38,0 -8.931,2.387 -10.448,3.908 -1.21,1.207 0.284,2.489 1.306,1.476 1.092,-1.077 3.927,-3.989 9.324,-3.989 4.47,0 7.932,2.427 7.932,5.631 C 5.114,-1.754 2.43,-0.877 0,0"
             style="fill:#231f20;fill-opacity:1;fill-rule:nonzero;stroke:none"
             id="path36" />
        </g>
        <g
           id="g38"
           transform="translate(1000.6279,306.0791)">
          <path
             d="m 0,0 c -0.355,0 -1.167,0 -1.167,-1.528 v -15.666 c 0,-2.134 -0.172,-3.894 -1.129,-5.225 -1.362,-1.873 -4.009,-2.904 -7.6,-2.904 -3.543,0 -6.138,1.041 -7.517,2.949 -0.959,1.325 -1.241,3.075 -1.241,5.18 v 15.666 c 0,1.528 -0.8,1.528 -1.153,1.528 -0.348,0 -1.152,0 -1.152,-1.528 v -16.58 c 0,-5.234 4.342,-8.61 11.063,-8.61 6.698,0 11.042,3.376 11.042,8.61 v 16.58 C 1.146,0 0.343,0 0,0"
             style="fill:#231f20;fill-opacity:1;fill-rule:nonzero;stroke:none"
             id="path40" />
        </g>
        <g
           id="g42"
           transform="translate(1029.2295,279.8674)">
          <path
             d="M 0,0 C 1.202,-0.897 1.672,-0.32 1.878,-0.057 2.097,0.209 2.596,0.833 1.42,1.771 L -13.604,13.838 1.063,24.794 c 0.791,0.586 0.533,1.037 0.402,1.214 -0.142,0.176 -0.494,0.541 -1.283,-0.041 L -16.287,13.858 v 23.067 c 0,1.529 -0.812,1.529 -1.161,1.529 -0.347,0 -1.149,0 -1.149,-1.529 V 1.026 c 0,-1.532 0.802,-1.532 1.149,-1.532 0.349,0 1.161,0 1.161,1.532 v 12.068 z"
             style="fill:#231f20;fill-opacity:1;fill-rule:nonzero;stroke:none"
             id="path44" />
        </g>
        <g
           id="g46"
           transform="translate(1047.7554,280.756)">
          <path
             d="m 0,0 c -7.382,0 -10.19,6.448 -10.19,11.977 0,5.942 3.288,11.953 10.19,11.953 7.327,0 9.933,-6.444 9.933,-11.953 C 9.933,6.448 7.327,0 0,0 m 11.086,25.323 c -0.345,0 -1.153,-0.054 -1.153,-1.528 L 9.93,18.328 c -1.234,3.533 -4.574,6.995 -10.049,6.995 -8.615,0 -12.539,-6.922 -12.539,-13.346 0,-6.474 3.322,-13.372 12.658,-13.372 5.746,0 8.746,3.585 9.962,6.975 V 0.137 c 0,-1.532 0.779,-1.532 1.124,-1.532 0.343,0 1.159,0 1.159,1.532 v 23.658 c 0.007,1.456 -0.816,1.528 -1.159,1.528"
             style="fill:#231f20;fill-opacity:1;fill-rule:nonzero;stroke:none"
             id="path48" />
        </g>
        <g
           id="g50"
           transform="translate(135.811,382.5179)">
          <path
             d="m 0,0 3.563,3.804 c 5.754,-6.513 14.036,-10.726 23.281,-10.726 12.11,0 19.743,6.488 19.743,15.938 0,9.908 -6.465,13.062 -14.277,16.576 l -12.026,5.393 c -6.91,3.047 -16.095,7.982 -16.095,19.73 0,11.521 9.871,19.55 23.064,19.55 9.558,0 17.262,-4.347 22.102,-9.498 l -3.202,-3.683 c -4.647,4.923 -10.955,8.149 -18.9,8.149 -10.473,0 -17.503,-5.597 -17.503,-14.181 0,-9.256 7.921,-12.747 13.723,-15.3 L 35.475,30.395 C 44.359,26.435 52.171,21.536 52.171,9.402 52.171,-2.757 42.18,-11.954 26.796,-11.954 15.192,-11.954 6.26,-7.042 0,0"
             style="fill:#231f20;fill-opacity:1;fill-rule:nonzero;stroke:none"
             id="path52" />
        </g>
        <g
           id="g54"
           transform="translate(243.9328,400.8029)">
          <path
             d="m 0,0 c 0,15.216 -8.692,25.762 -20.368,25.762 -11.677,0 -20.369,-10.546 -20.369,-25.762 0,-15.215 8.692,-25.545 20.369,-25.545 C -8.692,-25.545 0,-15.215 0,0 m -46.321,0 c 0,19.333 12.061,30.456 25.953,30.456 13.891,0 25.953,-11.123 25.953,-30.456 0,-19.116 -12.062,-30.239 -25.953,-30.239 -13.892,0 -25.953,11.123 -25.953,30.239"
             style="fill:#231f20;fill-opacity:1;fill-rule:nonzero;stroke:none"
             id="path56" />
        </g>
        <g
           id="g58"
           transform="translate(257.2673,374.8492)">
          <path
             d="M 0,0 34.14,50.319 H 3.732 v 4.646 h 37.317 v -2.84 L 6.909,1.805 H 42.204 V -2.84 H 0 Z"
             style="fill:#231f20;fill-opacity:1;fill-rule:nonzero;stroke:none"
             id="path60" />
        </g>
        <g
           id="g62"
           transform="translate(352.3888,400.8029)">
          <path
             d="m 0,0 c 0,15.216 -8.692,25.762 -20.368,25.762 -11.677,0 -20.369,-10.546 -20.369,-25.762 0,-15.215 8.692,-25.545 20.369,-25.545 C -8.692,-25.545 0,-15.215 0,0 m -46.321,0 c 0,19.333 12.061,30.456 25.953,30.456 13.891,0 25.953,-11.123 25.953,-30.456 0,-19.116 -12.062,-30.239 -25.953,-30.239 -13.892,0 -25.953,11.123 -25.953,30.239"
             style="fill:#231f20;fill-opacity:1;fill-rule:nonzero;stroke:none"
             id="path64" />
        </g>
        <g
           id="g66"
           transform="translate(366.4464,378.5577)">
          <path
             d="m 0,0 3.081,3.876 c 4.888,-4.093 10.148,-7.319 18.37,-7.319 9.101,0 13.82,5.321 13.82,11.412 0,7.246 -7.487,10.425 -14.157,12.832 -8.715,3.094 -18.417,6.645 -18.417,16.517 0,8.329 6.596,15.384 18.634,15.384 6.187,0 12.302,-2.564 16.515,-5.996 l -2.865,-3.827 c -3.9,2.912 -8.005,5.272 -13.795,5.272 -9.016,0 -13.097,-5.189 -13.097,-10.521 0,-6.597 6.813,-9.101 13.699,-11.701 8.956,-3.406 18.875,-6.355 18.875,-17.623 0,-8.715 -6.957,-16.3 -19.477,-16.3 C 12.615,-7.994 5.176,-4.406 0,0"
             style="fill:#231f20;fill-opacity:1;fill-rule:nonzero;stroke:none"
             id="path68" />
        </g>
        <g
           id="g70"
           transform="translate(458.2931,404.5591)">
          <path
             d="m 0,0 c 0,14.758 -6.693,22.102 -17.07,22.102 -9.775,0 -18.611,-8.283 -19.815,-22.102 z m -42.325,-3.756 c 0,18.852 12.255,30.456 25.207,30.456 13.699,0 22.125,-9.75 22.125,-26.748 0,-1.445 -0.048,-2.889 -0.3,-4.334 H -36.86 c 0.192,-14.59 8.739,-25.015 21.764,-25.015 6.26,0 11.196,2.071 15.529,5.129 l 2.191,-4.045 c -4.55,-2.841 -9.75,-5.682 -18.225,-5.682 -14.758,0 -26.724,11.341 -26.724,30.239"
             style="fill:#231f20;fill-opacity:1;fill-rule:nonzero;stroke:none"
             id="path72" />
        </g>
        <path
           d="m 477.406,429.814 h 5.32 v -57.805 h -5.32 z m -2.07,18.683 c 0,2.985 2.215,4.718 4.839,4.718 2.623,0 4.839,-1.733 4.839,-4.718 0,-2.769 -2.216,-4.718 -4.839,-4.718 -2.624,0 -4.839,1.949 -4.839,4.718"
           style="fill:#231f20;fill-opacity:1;fill-rule:nonzero;stroke:none"
           id="path74" />
        <g
           id="g76"
           transform="translate(526.5178,451.3375)">
          <path
             d="M 0,0 H 43.239 V -4.766 H 5.537 v -31.612 h 31.852 v -4.767 H 5.537 V -79.328 H 0 Z"
             style="fill:#231f20;fill-opacity:1;fill-rule:nonzero;stroke:none"
             id="path78" />
        </g>
        <g
           id="g80"
           transform="translate(621.9038,400.8029)">
          <path
             d="m 0,0 c 0,15.216 -8.691,25.762 -20.368,25.762 -11.677,0 -20.368,-10.546 -20.368,-25.762 0,-15.215 8.691,-25.545 20.368,-25.545 C -8.691,-25.545 0,-15.215 0,0 m -46.321,0 c 0,19.333 12.061,30.456 25.953,30.456 13.891,0 25.953,-11.123 25.953,-30.456 0,-19.116 -12.062,-30.239 -25.953,-30.239 -13.892,0 -25.953,11.123 -25.953,30.239"
             style="fill:#231f20;fill-opacity:1;fill-rule:nonzero;stroke:none"
             id="path82" />
        </g>
        <g
           id="g84"
           transform="translate(642.3647,392.7384)">
          <path
             d="M 0,0 V 37.076 H 5.321 V 0.698 c 0,-12.255 3.876,-18.081 13.169,-18.081 6.886,0 11.87,3.612 18.636,11.797 v 42.662 h 5.32 v -57.805 h -4.502 l -0.578,9.678 H 37.101 C 31.42,-17.696 25.449,-22.174 17.48,-22.174 5.538,-22.174 0,-14.927 0,0"
             style="fill:#231f20;fill-opacity:1;fill-rule:nonzero;stroke:none"
             id="path86" />
        </g>
        <g
           id="g88"
           transform="translate(705.392,429.8142)">
          <path
             d="m 0,0 h 4.501 l 0.578,-8.956 h 0.265 c 5.899,5.874 11.917,10.401 19.887,10.401 11.941,0 17.478,-7.247 17.478,-22.174 V -57.805 H 37.39 v 36.378 c 0,12.255 -3.876,18.081 -13.17,18.081 -6.885,0 -11.869,-3.635 -18.9,-10.858 V -57.805 H 0 Z"
             style="fill:#231f20;fill-opacity:1;fill-rule:nonzero;stroke:none"
             id="path90" />
        </g>
        <g
           id="g92"
           transform="translate(805.8334,384.8168)">
          <path
             d="m 0,0 v 34.284 c -6.092,5.417 -11.171,7.44 -16.853,7.44 -11.485,0 -20.345,-11.22 -20.345,-25.713 0,-15.384 6.838,-25.545 19.093,-25.545 6.38,0 12.038,3.347 18.105,9.534 m -42.783,15.986 c 0,18.659 11.845,30.456 25.641,30.456 6.934,0 11.652,-2.625 17.43,-7.103 L 0,49.957 v 23.835 h 5.32 v -86.6 H 0.818 L 0.241,-5.32 h -0.265 c -4.744,-4.743 -11.171,-8.933 -18.851,-8.933 -14.493,0 -23.908,10.739 -23.908,30.239"
             style="fill:#231f20;fill-opacity:1;fill-rule:nonzero;stroke:none"
             id="path94" />
        </g>
        <g
           id="g96"
           transform="translate(864.936,384.4797)">
          <path
             d="m 0,0 v 19.67 c -23.739,-2.745 -31.852,-8.257 -31.852,-17.479 0,-8.294 5.609,-11.484 12.254,-11.484 6.621,0 12.447,3.202 19.598,9.293 m -37.293,1.914 c 0,12.844 11.58,18.959 37.293,21.801 0.169,8.884 -2.263,18.395 -13.627,18.395 -7.801,0 -14.541,-3.853 -18.417,-6.791 l -2.457,3.948 c 4.094,2.889 12.11,7.512 21.5,7.512 13.699,0 18.321,-9.943 18.321,-22.318 V -12.471 H 0.818 l -0.577,7.512 h -0.265 c -5.899,-4.767 -12.929,-8.957 -20.512,-8.957 -9.149,0 -16.757,4.984 -16.757,15.83"
             style="fill:#231f20;fill-opacity:1;fill-rule:nonzero;stroke:none"
             id="path98" />
        </g>
        <g
           id="g100"
           transform="translate(889.3494,387.9708)">
          <path
             d="m 0,0 v 37.198 h -9.028 v 4.14 L 0.12,41.843 0.794,58.576 H 5.32 V 41.843 H 22.077 V 37.198 H 5.32 V -0.397 c 0,-7.379 1.854,-12.363 9.823,-12.363 2.143,0 5.152,0.915 7.246,1.83 l 1.397,-4.31 C 20.44,-16.419 16.744,-17.407 14.348,-17.407 3.25,-17.407 0,-10.352 0,0"
             style="fill:#231f20;fill-opacity:1;fill-rule:nonzero;stroke:none"
             id="path102" />
        </g>
        <path
           d="m 923.992,429.814 h 5.32 v -57.805 h -5.32 z m -2.07,18.683 c 0,2.985 2.214,4.718 4.838,4.718 2.625,0 4.84,-1.733 4.84,-4.718 0,-2.769 -2.215,-4.718 -4.84,-4.718 -2.624,0 -4.838,1.949 -4.838,4.718"
           style="fill:#231f20;fill-opacity:1;fill-rule:nonzero;stroke:none"
           id="path104" />
        <g
           id="g106"
           transform="translate(991.4498,400.8029)">
          <path
             d="m 0,0 c 0,15.216 -8.691,25.762 -20.369,25.762 -11.676,0 -20.368,-10.546 -20.368,-25.762 0,-15.215 8.692,-25.545 20.368,-25.545 C -8.691,-25.545 0,-15.215 0,0 m -46.321,0 c 0,19.333 12.061,30.456 25.952,30.456 13.892,0 25.954,-11.123 25.954,-30.456 0,-19.116 -12.062,-30.239 -25.954,-30.239 -13.891,0 -25.952,11.123 -25.952,30.239"
             style="fill:#231f20;fill-opacity:1;fill-rule:nonzero;stroke:none"
             id="path108" />
        </g>
        <g
           id="g110"
           transform="translate(1012.8256,429.8142)">
          <path
             d="m 0,0 h 4.501 l 0.578,-8.956 h 0.265 c 5.899,5.874 11.918,10.401 19.887,10.401 11.941,0 17.479,-7.247 17.479,-22.174 v -37.076 h -5.32 v 36.378 c 0,12.255 -3.876,18.081 -13.17,18.081 -6.885,0 -11.869,-3.635 -18.9,-10.858 V -57.805 H 0 Z"
             style="fill:#231f20;fill-opacity:1;fill-rule:nonzero;stroke:none"
             id="path112" />
        </g>
        <g
           id="g114"
           transform="translate(1068.0928,445.0728)">
          <path
             d="M 0,0 H 1.242 C 2.691,0 3.864,0.483 3.864,1.656 3.864,2.691 3.105,3.381 1.449,3.381 0.76,3.381 0.276,3.312 0,3.243 Z M -0.068,-6.417 H -2.69 V 4.899 c 1.035,0.207 2.483,0.345 4.346,0.345 2.14,0 3.106,-0.345 3.934,-0.828 C 6.21,3.933 6.693,3.036 6.693,1.932 6.693,0.69 5.728,-0.276 4.348,-0.69 V -0.828 C 5.451,-1.242 6.072,-2.07 6.417,-3.588 6.763,-5.313 6.97,-6.003 7.245,-6.417 H 4.416 c -0.345,0.414 -0.552,1.449 -0.896,2.76 -0.207,1.242 -0.898,1.794 -2.346,1.794 h -1.242 z m -6.97,5.934 c 0,-5.037 3.726,-9.039 8.832,-9.039 4.969,0 8.625,4.002 8.625,8.97 0,5.037 -3.656,9.108 -8.693,9.108 -5.038,0 -8.764,-4.071 -8.764,-9.039 m 20.355,0 c 0,-6.417 -5.037,-11.454 -11.591,-11.454 -6.487,0 -11.662,5.037 -11.662,11.454 0,6.279 5.175,11.316 11.662,11.316 6.554,0 11.591,-5.037 11.591,-11.316"
             style="fill:#231f20;fill-opacity:1;fill-rule:nonzero;stroke:none"
             id="path116" />
        </g>
      </g>
    </g>
  </g>
</svg>
