<svg width="103" height="49" viewBox="0 0 103 49" fill="none" xmlns="http://www.w3.org/2000/svg">
<g clip-path="url(#clip0_1270_184)">
<path d="M80.5661 48.9999L85.5743 38.1034L0.404297 37.9736L80.5661 48.9999Z" fill="white" fill-opacity="0.7"/>
<path d="M103 0.345947L93.8266 20.31L97.5441 31.3579L90.789 31.3493L90.036 28.5473L85.6172 38.1597H85.6345L85.5742 38.2937L102.944 38.3196L103 0.345947Z" fill="white" fill-opacity="0.9"/>
<path d="M85.6173 38.1597L85.5872 38.2289L0.404297 38.1597L85.5743 38.2937L85.6345 38.1597H85.6173Z" fill="white"/>
<path d="M62.8829 18.3685C62.6549 17.5556 62.3752 16.5049 62.0525 15.2163C61.7298 13.9277 61.5104 13.0024 61.4071 12.4446C61.3124 12.9635 61.1274 13.8153 60.8478 15.0001C60.5681 16.1849 59.9528 18.5242 59.002 22.0094L63.8639 22.018L62.8829 18.3642V18.3685Z" fill="white"/>
<path d="M43.297 24.5692C44.1747 23.5098 44.6136 21.8926 44.6179 19.709C44.6179 17.6724 44.2091 16.159 43.383 15.1731C42.5569 14.1872 41.2963 13.6943 39.6096 13.6899H37.8112L37.7939 26.1475H39.1708C41.0467 26.1518 42.4235 25.6243 43.3013 24.5649L43.297 24.5692Z" fill="white"/>
<path d="M86.5808 15.2551C86.2538 13.9665 86.0387 13.0412 85.9354 12.4834C85.8408 13.0023 85.6558 13.8498 85.3761 15.0389C85.0964 16.228 84.4811 18.563 83.5303 22.0482L88.3922 22.0568L87.4112 18.403C87.1832 17.5901 86.9035 16.5393 86.5808 15.2508V15.2551Z" fill="white"/>
<path d="M0.124775 37.9348L85.6175 37.9737L90.0363 28.3614L89.6662 26.9906L82.2399 26.9777L81.0782 31.146L74.293 31.1374L81.7882 8.81671L90.0277 8.82969L93.8269 20.1241L103 0.159989L0.0559338 0L0 37.9694H0.404445L0.129078 37.9305L0.124775 37.9348ZM65.4899 8.78645L73.0109 31.1331L66.2558 31.1244L65.1371 26.9561L57.7108 26.9431L56.5491 31.1115L49.7639 31.1028L57.259 8.78212L65.4985 8.79509L65.4899 8.78645ZM31.6413 8.82536L39.5538 8.83833C43.2239 8.84266 46.0551 9.75935 48.0472 11.5884C50.0393 13.4175 51.0375 16.0552 51.0289 19.5057C51.0246 23.2158 49.9704 26.0783 47.8665 28.0803C45.7625 30.0867 42.8109 31.0855 39.0031 31.0812L31.6069 31.0682L31.6413 8.82536ZM14.0179 8.70861L22.2574 8.72158L29.7783 31.0682L23.0232 31.0596L21.9045 26.8912L14.4783 26.8782L13.3166 31.0466L6.53135 31.0379L14.0265 8.71726L14.0179 8.70861Z" fill="white"/>
<path d="M19.646 18.2994C19.418 17.4865 19.1383 16.4358 18.8156 15.1472C18.4886 13.8586 18.2735 12.9333 18.1702 12.3755C18.0755 12.8944 17.8905 13.7462 17.6109 14.931C17.3312 16.1158 16.7159 18.4551 15.7607 21.9403L20.6227 21.9489L19.6417 18.2951L19.646 18.2994Z" fill="white"/>
<path d="M0.404669 38.1595L85.5876 38.2287L85.6177 38.1595L0.125 38.1206L0.404669 38.1595Z" fill="white"/>
</g>
<defs>
<clipPath id="clip0_1270_184">
<rect width="103" height="49" fill="white"/>
</clipPath>
</defs>
</svg>
