<svg width="110" height="47" viewBox="0 0 110 47" fill="none" xmlns="http://www.w3.org/2000/svg">
<path d="M0 12.1519H3.75472L16.1095 28.0691V12.1519H20.0938V35.1715H16.7004L3.98432 18.7958V35.1715H0V12.1519Z" fill="white"/>
<path d="M24.125 12.1519H41.2204V15.7688H28.1769V21.7555H39.7381V25.4061H28.1769V31.5546H41.3859V35.1715H24.125V12.1519Z" fill="white"/>
<path d="M69.4893 25.4061V12.1519H73.5411V25.2409C73.5411 29.5152 75.746 31.7838 79.3724 31.7838C82.9617 31.7838 85.1699 29.6467 85.1699 25.4027V12.1519H89.2218V25.2072C89.2218 32.0804 85.3354 35.5322 79.3049 35.5322C73.3115 35.5356 69.4893 32.0804 69.4893 25.4061Z" fill="white"/>
<path d="M91.2744 31.8177L93.7123 28.9221C95.9172 30.8301 98.1592 31.9155 100.992 31.9155C103.498 31.9155 105.078 30.7323 105.078 29.0199V28.9525C105.078 27.3075 104.156 26.421 99.8745 25.4333C94.965 24.2501 92.1996 22.804 92.1996 18.5601V18.4927C92.1996 14.5454 95.4951 11.8184 100.07 11.8184C103.43 11.8184 106.097 12.8364 108.437 14.7106L106.263 17.7679C104.186 16.2207 102.113 15.3982 100.003 15.3982C97.6291 15.3982 96.2481 16.6151 96.2481 18.1286V18.1927C96.2481 19.9691 97.3015 20.7579 101.748 21.8096C106.624 22.9928 109.126 24.7355 109.126 28.5514V28.6188C109.126 32.9267 105.733 35.492 100.891 35.492C97.3657 35.5021 94.0398 34.2852 91.2744 31.8177Z" fill="white"/>
<path d="M54.4208 24.1289L37.8184 47.0003H40.4689L55.7681 25.9222L54.4478 24.1289H54.4208Z" fill="white"/>
<path d="M58.1423 22.6623L50.437 12.125H45.6592L53.3678 22.6623H53.3645L54.4483 24.1287L55.7686 25.922L62.6871 35.3031H67.4649L58.1423 22.6623Z" fill="white"/>
<path d="M72.0023 0H74.5955L58.1416 22.6624H55.5518L72.0023 0Z" fill="white"/>
</svg>
