<?xml version="1.0" encoding="UTF-8"?>
<svg width="300px" height="24px" viewBox="0 0 300 24" version="1.1" xmlns="http://www.w3.org/2000/svg" xmlns:xlink="http://www.w3.org/1999/xlink">
    <!-- Generator: Sketch 55.2 (78181) - https://sketchapp.com -->
    <title>Group 2</title>
    <desc>Created with Sketch.</desc>
    <g id="Page-1" stroke="none" stroke-width="1" fill="none" fill-rule="evenodd">
        <g id="Group-2" fill="#FFFFFF">
            <path d="M19.5077583,11.7073298 C20.7427778,11.6070957 21.5809259,11.0474555 21.9028636,10.2873471 C21.4588117,10.5602065 20.0739246,10.8581244 19.3107102,10.5741279 C19.2718557,10.395934 19.2302258,10.226093 19.1913713,10.0729576 C18.608553,7.9457679 16.6130945,6.2306516 14.5260502,6.4366883 C14.695345,6.3698656 14.8646398,6.3058272 15.03671,6.2501416 C15.2670619,6.1666132 16.6158698,5.94943937 16.4021698,5.47611183 C16.224549,5.05846987 14.5760061,5.79073543 14.2651697,5.88540094 C14.6759177,5.73226556 15.353097,5.47054327 15.4252555,5 C14.798032,5.08631267 14.1819099,5.38144632 13.7045541,5.81022539 C13.8766242,5.62646293 14.0070645,5.40372055 14.0348177,5.16148822 C12.3612968,6.2250831 11.3843825,8.3717627 10.5934149,10.4516196 C9.9717421,9.8529995 9.4194525,9.3824562 8.9254447,9.1207339 C7.5405576,8.3801155 5.8836887,7.6088701 3.28043396,6.6455093 C3.20272486,7.5030674 3.70783399,8.6418378 5.1648795,9.3991619 C4.84849249,9.3573977 4.27122493,9.4520632 3.810521,9.5606501 C3.99646777,10.5435008 4.61258988,11.350942 6.2750095,11.7435254 C5.5145705,11.7936424 5.1204743,11.9634835 4.76523275,12.336577 C5.1121484,13.0187255 5.9558471,13.820598 7.4739498,13.6563255 C5.7865523,14.3802382 6.7856692,15.722261 8.159455,15.5217929 C5.8170809,17.9301948 2.12034818,17.7547852 0,15.7389667 C5.5395484,23.2509533 17.5816829,20.1826771 19.3745427,12.9463342 C20.7205752,12.9574713 21.5087675,12.4813595 22,11.9579149 C21.2256844,12.0887761 20.1016778,11.9551306 19.5077583,11.7073298" id="Fill-12" fill-rule="nonzero"></path>
            <path d="M47.3099201,5.87254902 L47.3099201,8.625817 L45,8.625817 L45,11.9945534 L47.3099201,11.9945534 L47.3099201,22 L52.0497562,22 L52.0497562,11.9945534 L55.2323734,11.9945534 C55.2323734,11.9945534 55.5296358,10.3796296 55.6741763,8.6149237 L52.0688464,8.6149237 L52.0688464,6.3110022 C52.0688464,5.96786492 52.5842831,5.50490196 53.0969927,5.50490196 L55.6796306,5.50490196 L55.6796306,2 L52.1670248,2 C47.1926514,2 47.3099201,5.36873638 47.3099201,5.87254902" id="Fill-11" fill-rule="nonzero"></path>
            <g id="RSS" transform="translate(123.000000, 4.000000)" fill-rule="nonzero">
                <path d="M4.2638503,13.8788443 C4.26380129,15.0526445 3.3105341,16 2.1305039,16 C0.955031503,16 0,15.0525955 0,13.8788443 C0,12.7112635 0.955031503,11.7531832 2.1305039,11.7531832 C3.31058311,11.7531832 4.2638503,12.7112635 4.2638503,13.8788443 Z M10.564451,15.9954946 L7.48278724,15.9954946 C7.48278724,13.9923115 6.70335372,12.1067091 5.29058146,10.6956905 C3.87633893,9.28168462 1.99778848,8.50117532 2.84217094e-14,8.50117532 L2.84217094e-14,5.43584721 C5.82350148,5.43584721 10.564451,10.172429 10.564451,15.9954946 Z M16,15.9939275 L12.9229921,15.9939275 C12.9229921,8.86694417 7.12384791,3.06679726 0,3.06679726 L0,0 C8.82160546,0 16,7.17737512 16,15.9939275 Z" id="Path"></path>
            </g>
            <g id="Download" transform="translate(82.000000, 3.000000)" fill-rule="nonzero">
                <rect id="Rectangle-3" x="0" y="15" width="18" height="3"></rect>
                <rect id="Rectangle-4" x="0" y="12" width="2" height="4"></rect>
                <rect id="Rectangle-4" x="6" y="0" width="6" height="8"></rect>
                <rect id="Rectangle-4" x="16" y="12" width="2" height="4"></rect>
                <polygon id="Triangle" transform="translate(9.000000, 9.750000) rotate(180.000000) translate(-9.000000, -9.750000) " points="9 6.75 14.25 12.75 3.75 12.75"></polygon>
            </g>
            <g id="noun_podcast_648424_000000" transform="translate(161.000000, 1.000000)" fill-rule="nonzero">
                <path d="M9.79591837,13.7142857 C7.63193469,13.7142857 5.87755102,14.7390476 5.87755102,16.2539683 C5.87755102,17.7777778 6.08653061,19.3173333 6.50422857,20.679873 C6.74716735,21.472254 7.2427102,22.455619 7.2427102,22.455619 C7.35399184,22.6765714 7.68,22.8571429 7.96734694,22.8571429 L11.6244898,22.8571429 C11.9118367,22.8571429 12.2378449,22.6765714 12.3491265,22.455619 C12.3491265,22.455619 12.8444082,21.472254 13.0873469,20.680127 C13.5053061,19.3175873 13.7142857,17.7777778 13.7142857,16.2539683 C13.7142857,14.7390476 11.959902,13.7142857 9.79591837,13.7142857 Z" id="Shape"></path>
                <circle id="Oval" cx="10.122449" cy="10.122449" r="2.28571429"></circle>
                <path d="M9.79591837,0 C4.39434851,0 0,4.43498221 0,9.88649934 C0,13.4284011 1.85594976,16.5396064 4.63698587,18.2857143 C4.56590267,17.6466408 4.52697017,16.9938784 4.52320251,16.3362994 C2.68207221,14.80085 1.50706436,12.4795507 1.50706436,9.88649934 C1.50706436,5.27381365 5.22549451,1.5209999 9.79591837,1.5209999 C14.3663422,1.5209999 18.0847724,5.27381365 18.0847724,9.88649934 C18.0847724,12.4795507 16.9097645,14.80085 15.0686342,16.3362994 C15.0646154,16.9938784 15.0259341,17.6466408 14.9548509,18.2857143 C17.735887,16.5396064 19.5918367,13.4284011 19.5918367,9.88649934 C19.5918367,4.43498221 15.1974882,0 9.79591837,0 Z" id="Shape"></path>
                <path d="M6.57746939,13.3615656 C5.84179592,12.5237617 5.3877551,11.4028702 5.3877551,10.1686916 C5.3877551,7.5839221 7.36530612,5.48094841 9.79591837,5.48094841 C12.2265306,5.48094841 14.2040816,7.5839221 14.2040816,10.1686916 C14.2040816,11.4028702 13.7500408,12.5237617 13.0143673,13.3615656 C13.461551,13.639705 13.8435918,13.9780038 14.1462857,14.3673469 C15.0947755,13.2571331 15.6734694,11.7833587 15.6734694,10.1686916 C15.6734694,6.72215864 13.036898,3.91836735 9.79591837,3.91836735 C6.55493878,3.91836735 3.91836735,6.72215864 3.91836735,10.1686916 C3.91836735,11.7833587 4.49706122,13.2571331 5.44555102,14.3673469 C5.7482449,13.9780038 6.13028571,13.639705 6.57746939,13.3615656 Z" id="Shape"></path>
            </g>
            <g id="noun_more_1936550_000000" transform="translate(201.000000, 10.000000)" fill-rule="nonzero">
                <path d="M0,3.04 C0,1.36 1.36,0 3.04,0 C4.72,0 6,1.36 6,3.04 C6,4.72 4.72,6 3.04,6 C1.36,6 0,4.72 0,3.04 Z" id="Shape"></path>
                <path d="M6.96,3.04 C6.96,1.36 8.32,0 10,0 C11.68,0 13.04,1.36 13.04,3.04 C13.04,4.72 11.68,6 10,6 C8.32,6 6.96,4.72 6.96,3.04 Z" id="Shape"></path>
                <path d="M14,3.04 C14,1.36 15.36,0 16.96,0 C18.64,0 20,1.36 20,3.04 C20,4.72 18.64,6 16.96,6 C15.36,6 14,4.72 14,3.04 Z" id="Shape"></path>
            </g>
            <g id="Donate" transform="translate(239.000000, 0.000000)" fill-rule="nonzero">
                <path d="M12,0 C5.3832,0 0,4.78506667 0,10.6666667 L0,13.3333333 C0,19.2149333 5.3832,24 12,24 C18.6168,24 24,19.2149333 24,13.3333333 L24,10.6666667 C24,4.78506667 18.6168,0 12,0 Z M12,20.6666667 C6.1184,20.6666667 1.33333333,16.3301333 1.33333333,11 C1.33333333,5.66986667 6.1184,1.33333333 12,1.33333333 C17.8816,1.33333333 22.6666667,5.66986667 22.6666667,11 C22.6666667,16.3301333 17.8816,20.6666667 12,20.6666667 Z M2.52053333,16.6536 L2.52053333,17.6042667 C2.01066667,16.7413333 1.64906667,15.8016 1.468,14.8090667 C1.75146667,15.4584 2.1048,16.076 2.52053333,16.6536 Z M6.2848,19.9176 C7.2776,20.4485333 8.36586667,20.8453333 9.5208,21.0810667 L9.5208,22.4093333 C8.3568,22.1658667 7.26666667,21.7552 6.2848,21.2077333 L6.2848,19.9176 Z M14.4042667,21.0970667 C15.6112,20.8584 16.7469333,20.4442667 17.7778667,19.8848 L17.7778667,21.1725333 C16.7589333,21.7496 15.6213333,22.1781333 14.4042667,22.4245333 L14.4042667,21.0970667 Z M21.5245333,16.5896 C21.9205333,16.0304 22.2589333,15.4346667 22.5322667,14.8088 C22.3565333,15.772 22.0109333,16.6856 21.5245333,17.5274667 L21.5245333,16.5896 Z M3.16266667,18.5546667 L3.18693333,18.5546667 L3.18693333,17.4872 C3.8832,18.272 4.70213333,18.9629333 5.61786667,19.5338667 L5.61786667,20.8072 C4.66373333,20.1818667 3.83253333,19.4197333 3.16266667,18.5546667 Z M10.1874667,22.5290667 L10.1874667,21.1994667 C10.7778667,21.2864 11.3829333,21.3333333 12,21.3333333 C12.5906667,21.3333333 13.1709333,21.2917333 13.7376,21.2117333 L13.7376,22.5408 C13.1717333,22.6224 12.5917333,22.6666667 12,22.6666667 C11.3818667,22.6666667 10.7770667,22.6178667 10.1874667,22.5290667 Z M18.4445333,20.7642667 L18.4445333,19.4933333 C19.3546667,18.9173333 20.1677333,18.2232 20.8576,17.4352 L20.8576,18.4978667 L20.8792,18.4978667 C20.2170667,19.3666667 19.3928,20.1330667 18.4445333,20.7642667 Z" id="Shape"></path>
                <path d="M12.3566517,17.25 C12.7603134,16.9440311 16.9804125,13.2384079 17.7877358,11.8785462 C17.7877358,11.8785462 19.9528302,9.43079506 17.7877358,7.62897826 C17.7877358,7.62897826 14.6685321,5.18122715 12.3566517,8.51288839 C10.0814679,5.18122715 6.96226415,7.59498172 6.96226415,7.59498172 C4.79716981,9.39679851 6.96226415,11.8445496 6.96226415,11.8445496 C7.76958746,13.2044114 11.8429005,16.8080449 12.3566517,17.25 Z" id="Shape"></path>
            </g>
            <g id="Group" transform="translate(281.000000, 3.000000)">
                <path d="M2.96847502,0.820930385 C4.17040786,0.820930385 5.14620803,1.79710401 5.14620803,2.99972154 C5.14620803,4.20271253 4.17040786,5.17888616 2.96847502,5.17888616 C1.76174939,5.17888616 0.788625717,4.20271253 0.788625717,2.99972154 C0.788625717,1.79710401 1.76174939,0.820930385 2.96847502,0.820930385 L2.96847502,0.820930385 Z M1.08689926,18.9200098 L4.84799672,18.9200098 L4.84799672,6.83059459 L1.08689926,6.83059459 L1.08689926,18.9200098 Z" id="Fill-6"></path>
                <path d="M7.20511712,6.83059459 L10.8068075,6.83059459 L10.8068075,8.48329894 L10.8582834,8.48329894 C11.3592858,7.53289435 12.5852449,6.53057821 14.4132907,6.53057821 C18.2176478,6.53057821 18.9206945,9.03378542 18.9206945,12.2897723 L18.9206945,18.9200098 L15.1637052,18.9200098 L15.1637052,13.0409337 C15.1637052,11.6390106 15.1396167,9.8354267 13.2113579,9.8354267 C11.2562719,9.8354267 10.9579361,11.3634562 10.9579361,12.9405962 L10.9579361,18.9200098 L7.20511712,18.9200098 L7.20511712,6.83059459" id="Fill-7"></path>
            </g>
        </g>
    </g>
</svg>
