<svg width="66" height="59" viewBox="0 0 66 59" fill="none" xmlns="http://www.w3.org/2000/svg">
<g id="Layer_1" clip-path="url(#clip0_156_1801)">
<path id="Vector" fill-rule="evenodd" clip-rule="evenodd" d="M64.0785 24.318C63.0209 24.318 62.1568 25.1809 62.1568 26.2371C62.1568 26.2832 62.1568 26.3294 62.1568 26.3735V39.2045C62.1568 39.2528 62.1568 39.2989 62.1568 39.3472V39.343C62.1568 40.3992 63.023 41.2621 64.0806 41.2621C65.1381 41.2621 66.0023 40.3992 66.0023 39.343V39.2905V39.2884V39.2066V26.2937V26.2392C66.0023 25.183 65.1381 24.3201 64.0806 24.3201L64.0785 24.318ZM25.3144 22.1239C24.2568 22.1239 23.3927 22.9868 23.3927 24.0429C23.3927 24.0891 23.3927 24.1353 23.3927 24.1794V41.7492C23.3927 41.7975 23.3927 41.8437 23.3927 41.892V41.8878C23.3927 42.9439 24.259 43.8069 25.3165 43.8069C26.3741 43.8069 27.2382 42.9439 27.2382 41.8878V24.0975V24.0429C27.2382 22.9868 26.3741 22.1239 25.3165 22.1239H25.3144ZM33.0012 24.318C31.9436 24.318 31.0795 25.1809 31.0795 26.2371C31.0795 26.2832 31.0795 26.3294 31.0795 26.3735V39.2045C31.0795 39.2528 31.0795 39.2989 31.0795 39.3472V39.343C31.0795 40.3992 31.9457 41.2621 33.0033 41.2621C34.0609 41.2621 34.925 40.3992 34.925 39.343V39.2905V39.2884V39.2066V26.2937V26.2392C34.925 25.183 34.0609 24.3201 33.0033 24.3201L33.0012 24.318ZM40.688 22.1239C39.6304 22.1239 38.7663 22.9868 38.7663 24.0429C38.7663 24.0891 38.7663 24.1353 38.7663 24.1794V41.7492C38.7663 41.7975 38.7663 41.8437 38.7663 41.892V41.8878C38.7663 42.9439 39.6325 43.8069 40.6901 43.8069C41.7477 43.8069 42.6118 42.9439 42.6118 41.8878V24.0975V24.0429C42.6118 22.9868 41.7477 22.1239 40.6901 22.1239H40.688ZM32.9991 6.57809C43.9006 6.57809 52.8216 15.4848 52.8216 26.3735V39.2045C52.8216 50.0911 43.9027 58.9999 32.9991 58.9999C22.0976 58.9999 13.1766 50.0932 13.1766 39.2045V26.3735C13.1766 15.4869 22.0955 6.57809 32.9991 6.57809ZM32.9991 10.4162C41.7876 10.4162 48.9782 17.597 48.9782 26.3735V39.2045C48.9782 47.981 41.7876 55.1618 32.9991 55.1618C24.2106 55.1618 17.02 47.981 17.02 39.2045V26.3735C17.02 17.597 24.2106 10.4162 32.9991 10.4162ZM32.9991 -0.00219727C47.5254 -0.00219727 59.4088 11.8671 59.4088 26.3714V39.2024C59.4088 40.1577 59.3562 41.1004 59.2553 42.0285C59.1838 43.0195 58.3491 43.809 57.3378 43.809C56.2802 43.809 55.4161 42.946 55.4161 41.8899C55.4161 41.8437 55.4161 41.7975 55.4203 41.7513C55.517 40.9157 55.5675 40.0632 55.5675 39.2003V26.3693C55.5675 13.9751 45.4123 3.83385 33.0012 3.83385C20.5901 3.83385 10.4349 13.9751 10.4349 26.3693V39.2003C10.4349 40.0632 10.4854 40.9136 10.5821 41.7534C10.5863 41.7975 10.5863 41.8416 10.5863 41.8878C10.5863 42.9439 9.72217 43.8069 8.66461 43.8069C7.6533 43.8069 6.8186 43.0174 6.74711 42.0264C6.64619 41.0983 6.59363 40.1556 6.59363 39.2003V26.3693C6.58943 11.8692 18.4728 -9.76215e-05 32.9991 -9.76215e-05V-0.00219727ZM1.92185 24.318C2.97941 24.318 3.84354 25.1809 3.84354 26.2371C3.84354 26.2832 3.84354 26.3294 3.84354 26.3735V39.2045C3.84354 39.2528 3.84354 39.2989 3.84354 39.3472V39.343C3.84354 40.3992 2.97731 41.2621 1.91974 41.2621C0.86218 41.2621 -0.00195312 40.3992 -0.00195312 39.343V39.2905V39.2884H0.000149388V39.2066V26.2937V26.2392C0.000149388 25.183 0.864282 24.3201 1.92185 24.3201V24.318Z" fill="#A1489B"/>
</g>
<defs>
<clipPath id="clip0_156_1801">
<rect width="66" height="59" fill="white"/>
</clipPath>
</defs>
</svg>
