<svg width="153" height="66" viewBox="0 0 153 66" fill="none" xmlns="http://www.w3.org/2000/svg">
<g clip-path="url(#clip0_270_971)">
<path d="M0.529297 17.0656H5.78041L23.059 39.3265V17.0656H28.6312V49.2595H23.8854L6.10152 26.3575V49.2595H0.529297V17.0656Z" fill="white"/>
<path d="M34.2695 17.0656H58.1781V22.124H39.9362V30.4966H56.1051V35.6022H39.9362V44.201H58.4095V49.2595H34.2695V17.0656Z" fill="white"/>
<path d="M97.7129 35.6022V17.0656H103.38V35.3712C103.38 41.3489 106.463 44.5216 111.535 44.5216C116.555 44.5216 119.643 41.5328 119.643 35.5975V17.0656H125.31V35.324C125.31 44.9365 119.874 49.7639 111.44 49.7639C103.058 49.7686 97.7129 44.9365 97.7129 35.6022Z" fill="#A1489B"/>
<path d="M128.181 44.5688L131.59 40.5192C134.674 43.1875 137.809 44.7055 141.771 44.7055C145.275 44.7055 147.485 43.0508 147.485 40.6559V40.5617C147.485 38.2611 146.196 37.0212 140.208 35.6399C133.342 33.9852 129.475 31.9628 129.475 26.0275V25.9332C129.475 20.4128 134.083 16.5989 140.482 16.5989C145.181 16.5989 148.911 18.0227 152.184 20.6438L149.143 24.9197C146.238 22.7558 143.339 21.6055 140.388 21.6055C137.068 21.6055 135.137 23.3074 135.137 25.4241V25.5137C135.137 27.9981 136.61 29.1012 142.829 30.5721C149.648 32.2268 153.147 34.6641 153.147 40.0007V40.0949C153.147 46.1198 148.401 49.7074 141.63 49.7074C136.7 49.7215 132.048 48.0197 128.181 44.5688Z" fill="#A1489B"/>
<path d="M76.6371 33.8156L53.418 65.802H57.1249L78.5213 36.3236L76.6749 33.8156H76.6371Z" fill="white"/>
<path d="M81.8409 31.7648L71.0648 17.028H64.3828L75.1636 31.7648H75.1589L76.6748 33.8155L78.5211 36.3235L88.197 49.4434H94.8789L81.8409 31.7648Z" fill="#A1489B"/>
<path d="M101.226 0.0706787H104.853L81.8417 31.7648H78.2197L101.226 0.0706787Z" fill="white"/>
</g>
<defs>
<clipPath id="clip0_270_971">
<rect width="153" height="66" fill="white"/>
</clipPath>
</defs>
</svg>
