<svg width="62" height="62" viewBox="0 0 62 62" fill="none" xmlns="http://www.w3.org/2000/svg">
<circle cx="31" cy="31" r="30" fill="white" fill-opacity="0.86" stroke="#A1489B" stroke-width="2"/>
<path fill-rule="evenodd" clip-rule="evenodd" d="M29.303 16.5195C29.303 14.5178 30.803 12.8936 32.651 12.8936C33.0897 12.8925 33.5244 12.9854 33.9302 13.167C34.3359 13.3486 34.7048 13.6153 35.0158 13.952C35.3268 14.2887 35.5738 14.6887 35.7426 15.1292C35.9115 15.5698 35.999 16.0422 36 16.5195C36 18.5222 34.5 20.1464 32.651 20.1464C32.2076 20.147 31.7685 20.0517 31.3592 19.866C30.95 19.6804 30.5787 19.4081 30.267 19.065L25.632 22.4983C25.7611 23.1978 25.6978 23.9232 25.45 24.5837L30.532 28.2172C31.1306 27.6861 31.8796 27.3967 32.652 27.398C33.0907 27.397 33.5254 27.49 33.9311 27.6718C34.3368 27.8535 34.7056 28.1204 35.0165 28.4572C35.3274 28.794 35.5743 29.1941 35.743 29.6347C35.9118 30.0752 35.9991 30.5477 36 31.0249C36 33.0266 34.5 34.6508 32.651 34.6508C31.7651 34.6528 30.9147 34.272 30.2869 33.592C29.659 32.9121 29.3051 31.9887 29.303 31.0249C29.3022 30.5165 29.4007 30.0137 29.592 29.5498L24.55 25.9479C23.9394 26.5255 23.1571 26.8428 22.348 26.841C21.9092 26.8422 21.4745 26.7493 21.0688 26.5676C20.663 26.3859 20.2941 26.119 19.9832 25.7822C19.6723 25.4454 19.4254 25.0452 19.2567 24.6046C19.088 24.164 19.0008 23.6915 19 23.2141C19.0009 22.7369 19.0883 22.2645 19.257 21.824C19.4258 21.3835 19.6727 20.9834 19.9836 20.6467C20.2945 20.31 20.6633 20.0433 21.069 19.8617C21.4747 19.68 21.9093 19.5872 22.348 19.5883C23.412 19.5883 24.358 20.1246 24.971 20.9601L29.464 17.6323C29.3571 17.2728 29.3028 16.8973 29.303 16.5195Z" fill="#A1489B"/>
</svg>
